<?xml version="1.0" encoding="UTF-8" standalone="no"?>
<svg
   width="51.9375"
   height="20.320312"
   viewBox="0 0 51.9375 20.320312"
   fill="none"
   version="1.1"
   id="svg2"
   sodipodi:docname="logo.svg"
   inkscape:version="1.3.2 (091e20e, 2023-11-25, custom)"
   xmlns:inkscape="http://www.inkscape.org/namespaces/inkscape"
   xmlns:sodipodi="http://sodipodi.sourceforge.net/DTD/sodipodi-0.dtd"
   xmlns:xlink="http://www.w3.org/1999/xlink"
   xmlns="http://www.w3.org/2000/svg"
   xmlns:svg="http://www.w3.org/2000/svg">
  <sodipodi:namedview
     id="namedview2"
     pagecolor="#000000"
     bordercolor="#000000"
     borderopacity="0.25"
     inkscape:showpageshadow="2"
     inkscape:pageopacity="0.0"
     inkscape:pagecheckerboard="0"
     inkscape:deskcolor="#d1d1d1"
     inkscape:zoom="15.220588"
     inkscape:cx="33.9343"
     inkscape:cy="11.990338"
     inkscape:window-width="1920"
     inkscape:window-height="1051"
     inkscape:window-x="-9"
     inkscape:window-y="-9"
     inkscape:window-maximized="1"
     inkscape:current-layer="svg2"
     showborder="false"
     showguides="true" />
  <path
     id="path3"
     style="fill:url(#linearGradient3);fill-opacity:1"
     d="M 14.867187,3.079071e-8 11.142578,14.095703 3.716797,11.05664 v 0.13086 l -0.105469,-0.173828 0.105469,0.04297 v -0.152343 l -0.105469,0.04297 0.105469,-0.173828 v 0.13086 L 11.451171,7.7402343 V 4.3847656 L -2e-7,9.5214841 V 12.439453 L 10.353515,17.085937 9.5,20.320312 h 2.984375 L 16.851562,3.7851562 21.49414,20.320312 h 3.431641 L 28.089843,9.2226561 h 0.128907 l 3.171875,11.0976559 h 3.43164 L 39.589843,3.3476562 H 35.742187 L 32.984375,15.166015 H 32.839843 L 29.80664,3.3476562 H 26.511718 L 23.46875,15.140625 H 23.332031 L 20.574218,3.3476562 H 16.966797 L 17.851562,3.0790711e-8 Z M 40.486328,4.3847656 v 3.3554687 l 7.734375,3.1640627 v -0.13086 l 0.103515,0.173828 -0.103515,-0.04297 v 0.152343 l 0.103515,-0.04297 -0.103515,0.173828 v -0.13086 l -7.734375,3.164063 v 3.355469 L 51.9375,12.439453 V 9.5214841 Z" />
  <defs
     id="defs2">
    <linearGradient
       id="linearGradient2"
       inkscape:collect="always">
      <stop
         style="stop-color:#fffbd2;stop-opacity:1;"
         offset="0"
         id="stop3" />
      <stop
         style="stop-color:#ffffff;stop-opacity:1;"
         offset="1"
         id="stop4" />
    </linearGradient>
    <linearGradient
       inkscape:collect="always"
       xlink:href="#linearGradient2"
       id="linearGradient3"
       gradientUnits="userSpaceOnUse"
       gradientTransform="translate(-14.06922,-1.8398439)"
       x1="25.520391"
       y1="6.2246094"
       x2="48.891483"
       y2="22.160156" />
  </defs>
</svg>
