<svg width="20" height="20" viewBox="0 0 20 20" fill="none" xmlns="http://www.w3.org/2000/svg">
<path d="M10 18.3333C14.6024 18.3333 18.3333 14.6024 18.3333 10C18.3333 5.39763 14.6024 1.66667 10 1.66667C5.39763 1.66667 1.66667 5.39763 1.66667 10C1.66667 14.6024 5.39763 18.3333 10 18.3333Z" fill="#FFFBD2"/>
<path d="M2.83895 14.2646C3.85338 15.9641 5.45579 17.2719 7.3655 17.9077C7.78246 17.9839 7.93438 17.7266 7.93438 17.5056C7.93438 17.4141 7.93283 17.2524 7.93079 17.0361C7.92842 16.7855 7.92533 16.4616 7.92313 16.0885C5.60517 16.5919 5.11613 14.9712 5.11613 14.9712C4.73704 14.009 4.19067 13.7527 4.19067 13.7527C3.43404 13.2355 4.24796 13.2457 4.24796 13.2457C5.08438 13.305 5.52433 14.1046 5.52433 14.1046C6.26767 15.378 7.475 15.0101 7.94975 14.7973C8.02546 14.2586 8.24029 13.8913 8.47871 13.6831C6.62833 13.4728 4.68279 12.7576 4.68279 9.56437C4.68279 8.65479 5.00767 7.91096 5.54071 7.32829C5.45475 7.1175 5.16879 6.27033 5.62204 5.12287C5.62204 5.12287 6.32188 4.89879 7.91392 5.97721C8.57846 5.79254 9.29158 5.69992 10.0001 5.69687C10.7076 5.69992 11.4208 5.79254 12.0863 5.97721C13.6773 4.89879 14.3757 5.12287 14.3757 5.12287C14.8305 6.27033 14.5445 7.1175 14.4585 7.32829C14.9926 7.91096 15.3154 8.65479 15.3154 9.56437C15.3154 12.7658 13.3668 13.4702 11.5103 13.6764C11.8096 13.9337 12.0761 14.4422 12.0761 15.2199C12.0761 15.9647 12.0715 16.6134 12.0685 17.0431C12.067 17.256 12.0659 17.4151 12.0659 17.5056C12.0659 17.7286 12.2158 17.988 12.6388 17.9067C14.1602 17.3988 15.4863 16.4648 16.4751 15.246C14.9473 17.1295 12.6142 18.3333 9.99988 18.3333C6.95596 18.3333 4.29325 16.7013 2.83895 14.2646Z" fill="#1C1C1C"/>
</svg>
