<svg width="20" height="20" viewBox="0 0 20 20" fill="none" xmlns="http://www.w3.org/2000/svg">
<path d="M18.75 10C18.75 5.16751 14.8325 1.25 10 1.25C5.16751 1.25 1.25 5.16751 1.25 10C1.25 14.8325 5.16751 18.75 10 18.75C14.8325 18.75 18.75 14.8325 18.75 10Z" fill="#FFFBD2"/>
<path d="M7.88662 6.05759C7.88662 6.64169 7.38031 7.11519 6.75581 7.11519C6.13128 7.11519 5.625 6.64169 5.625 6.05759C5.625 5.4735 6.13128 5 6.75581 5C7.38031 5 7.88662 5.4735 7.88662 6.05759Z" fill="#1C1C1C"/>
<path d="M5.77964 7.89256H7.71263V13.75H5.77964V7.89256Z" fill="#1C1C1C"/>
<path d="M10.8247 7.89256H8.89175V13.75H10.8247C10.8247 13.75 10.8247 11.906 10.8247 10.7531C10.8247 10.061 11.0611 9.36594 12.0039 9.36594C13.0694 9.36594 13.063 10.2716 13.058 10.9732C13.0515 11.8903 13.067 12.8262 13.067 13.75H15V10.6586C14.9836 8.68463 14.4693 7.77506 12.7771 7.77506C11.7721 7.77506 11.1492 8.23131 10.8247 8.64406V7.89256Z" fill="#1C1C1C"/>
</svg>
