<svg width="20" height="20" viewBox="0 0 20 20" fill="none" xmlns="http://www.w3.org/2000/svg">
<path d="M1.25 7.47225C1.25 5.29424 1.25 4.20525 1.67386 3.37337C2.04671 2.64163 2.64163 2.04671 3.37337 1.67386C4.20525 1.25 5.29424 1.25 7.47225 1.25H12.5278C14.7057 1.25 15.7948 1.25 16.6266 1.67386C17.3584 2.04671 17.9533 2.64163 18.3261 3.37337C18.75 4.20525 18.75 5.29424 18.75 7.47225V12.5278C18.75 14.7057 18.75 15.7948 18.3261 16.6266C17.9533 17.3584 17.3584 17.9533 16.6266 18.3261C15.7948 18.75 14.7057 18.75 12.5278 18.75H7.47225C5.29424 18.75 4.20525 18.75 3.37337 18.3261C2.64163 17.9533 2.04671 17.3584 1.67386 16.6266C1.25 15.7948 1.25 14.7057 1.25 12.5278V7.47225Z" fill="#FFFBD2"/>
<path d="M13.7822 5.32684L10.0402 8.24712L6.21277 5.32684V5.32763L6.21739 5.33158V9.42075L9.99712 12.4041L13.7822 9.53594V5.32684Z" fill="#1C1C1C"/>
<path d="M14.7644 4.6165L13.7817 5.32683V9.53594L16.8739 7.16188V5.73171C16.8739 5.73171 16.4986 3.68911 14.7644 4.6165Z" fill="#1C1C1C"/>
<path d="M13.7817 9.53594V14.9952H16.1517C16.1517 14.9952 16.8262 14.9258 16.8747 14.1571V7.16187L13.7817 9.53594Z" fill="#1C1C1C"/>
<path d="M6.21757 15.0001V9.42075L6.21277 9.41681L6.21757 15.0001Z" fill="#1C1C1C"/>
<path d="M6.21259 5.32753L5.23529 4.62114C3.50112 3.69376 3.125 5.73558 3.125 5.73558V7.16569L6.21259 9.41669V5.32753Z" fill="#1C1C1C"/>
<path d="M6.21277 5.32775V9.41694L6.21757 9.42087V5.3317L6.21277 5.32775Z" fill="#1C1C1C"/>
<path d="M3.125 7.16675V14.1619C3.17279 14.9315 3.84796 15.0002 3.84796 15.0002H6.21798L6.21259 9.41694L3.125 7.16675Z" fill="#1C1C1C"/>
</svg>
