<?xml version="1.0" encoding="UTF-8" standalone="no"?>
<svg
   width="64.011818"
   height="20.320419"
   viewBox="0 0 64.011818 20.320419"
   fill="none"
   version="1.1"
   id="svg2"
   sodipodi:docname="logo.svg"
   inkscape:version="1.3.2 (091e20e, 2023-11-25, custom)"
   xmlns:inkscape="http://www.inkscape.org/namespaces/inkscape"
   xmlns:sodipodi="http://sodipodi.sourceforge.net/DTD/sodipodi-0.dtd"
   xmlns:xlink="http://www.w3.org/1999/xlink"
   xmlns="http://www.w3.org/2000/svg"
   xmlns:svg="http://www.w3.org/2000/svg">
  <sodipodi:namedview
     id="namedview2"
     pagecolor="#ffffff"
     bordercolor="#000000"
     borderopacity="0.25"
     inkscape:showpageshadow="2"
     inkscape:pageopacity="0.0"
     inkscape:pagecheckerboard="0"
     inkscape:deskcolor="#d1d1d1"
     inkscape:zoom="15.220588"
     inkscape:cx="33.96715"
     inkscape:cy="11.990338"
     inkscape:window-width="1920"
     inkscape:window-height="1051"
     inkscape:window-x="-9"
     inkscape:window-y="-9"
     inkscape:window-maximized="1"
     inkscape:current-layer="svg2" />
  <path
     fill-rule="evenodd"
     clip-rule="evenodd"
     d="M 14.86692,2.696991e-8 11.14322,14.09582 3.7167501,11.05752 v 0.1297 l -0.10623,-0.1738 0.10623,0.0441 v -0.1538 l -0.10623,0.0442 0.10623,-0.1752 v 0.131 L 11.45072,7.74015 V 4.38428 L 5.2528381e-8,9.52202 v 2.9172 L 10.35342,17.08562 9.4994201,20.32042 H 12.48372 L 17.85122,1.002697e-5 Z M 17.60522,3.34733 l 4.765,16.97309 h 3.433 l 3.1632,-11.0975 h 0.13 l 3.1716,11.0975 h 3.4316 l 4.7664,-16.97309 h -3.8467 l -2.7578,11.81819 h -0.1455 L 30.68282,3.34733 h -3.2946 l -3.0415,11.79399 h -0.1384 L 21.45192,3.34733 Z m 22.8608,0 v 16.97309 h 3.5211 v -7.0109 h 6.7751 v -2.9585 h -6.7751 V 6.30579 h 7.5061 V 3.34733 Z m 12.0951,1.03695 v 3.35586 l 7.734,3.16498 v -0.1325 l 0.1048,0.1752 -0.1048,-0.0427 v 0.151 l 0.1048,-0.0428 -0.1048,0.1738 v -0.131 l -7.734,3.165 v 3.3559 l 11.4507,-5.1378 v -2.9172 z"
     fill="url(#paint0_linear_43_137)"
     id="path1"
     style="fill:url(#linearGradient4);fill-opacity:1" />
  <defs
     id="defs2">
    <linearGradient
       id="linearGradient2"
       inkscape:collect="always">
      <stop
         style="stop-color:#1c1c1c;stop-opacity:1;"
         offset="0"
         id="stop3" />
      <stop
         style="stop-color:#000000;stop-opacity:1;"
         offset="1"
         id="stop4" />
    </linearGradient>
    <linearGradient
       inkscape:collect="always"
       xlink:href="#linearGradient2"
       id="linearGradient4"
       x1="1.9940799"
       y1="11.99999"
       x2="66.005898"
       y2="11.99999"
       gradientUnits="userSpaceOnUse"
       gradientTransform="translate(-1.9940799,-1.83978)" />
  </defs>
</svg>
