<?xml version="1.0" encoding="UTF-8" standalone="no"?>
<svg
   width="68"
   height="24"
   viewBox="0 0 68 24"
   fill="none"
   version="1.1"
   id="svg2"
   sodipodi:docname="logo.svg"
   inkscape:version="1.3.2 (091e20e, 2023-11-25, custom)"
   xmlns:inkscape="http://www.inkscape.org/namespaces/inkscape"
   xmlns:sodipodi="http://sodipodi.sourceforge.net/DTD/sodipodi-0.dtd"
   xmlns:xlink="http://www.w3.org/1999/xlink"
   xmlns="http://www.w3.org/2000/svg"
   xmlns:svg="http://www.w3.org/2000/svg">
  <sodipodi:namedview
     id="namedview2"
     pagecolor="#ffffff"
     bordercolor="#000000"
     borderopacity="0.25"
     inkscape:showpageshadow="2"
     inkscape:pageopacity="0.0"
     inkscape:pagecheckerboard="0"
     inkscape:deskcolor="#d1d1d1"
     inkscape:zoom="15.220588"
     inkscape:cx="33.9343"
     inkscape:cy="11.990338"
     inkscape:window-width="1920"
     inkscape:window-height="1051"
     inkscape:window-x="-9"
     inkscape:window-y="-9"
     inkscape:window-maximized="1"
     inkscape:current-layer="svg2" />
  <path
     fill-rule="evenodd"
     clip-rule="evenodd"
     d="M16.861 1.83978L13.1373 15.9356L5.71083 12.8973V13.027L5.6046 12.8532L5.71083 12.8973V12.7435L5.6046 12.7877L5.71083 12.6125V12.7435L13.4448 9.57993V6.22406L1.99408 11.3618V14.279L12.3475 18.9254L11.4935 22.1602H14.4778L19.8453 1.83979L16.861 1.83978ZM19.5993 5.18711L24.3643 22.1602H27.7973L30.9605 11.0627H31.0905L34.2621 22.1602H37.6937L42.4601 5.18711H38.6134L35.8556 17.0053H35.7101L32.6769 5.18711H29.3823L26.3408 16.9811H26.2024L23.446 5.18711H19.5993ZM42.4601 5.18711V22.1602H45.9812V15.1493H52.7563V12.1908H45.9812V8.14557H53.4873V5.18711H42.4601ZM54.5552 6.22406V9.57992L62.2892 12.7449V12.6124L62.394 12.7876L62.2892 12.7449V12.8959L62.394 12.8531L62.2892 13.0269V12.8959L54.5552 16.0609V19.4168L66.0059 14.279V11.3618L54.5552 6.22406Z"
     fill="url(#paint0_linear_43_137)"
     id="path1"
     style="fill:url(#linearGradient4);fill-opacity:1"
     inkscape:export-filename="logo-dark.svg"
     inkscape:export-xdpi="96"
     inkscape:export-ydpi="96" />
  <defs
     id="defs2">
    <linearGradient
       id="linearGradient2"
       inkscape:collect="always">
      <stop
         style="stop-color:#fffbd2;stop-opacity:1;"
         offset="0"
         id="stop3" />
      <stop
         style="stop-color:#ffffff;stop-opacity:1;"
         offset="1"
         id="stop4" />
    </linearGradient>
    <linearGradient
       id="paint0_linear_43_137"
       x1="65.9843"
       y1="12.0659"
       x2="1.97603"
       y2="12.0659"
       gradientUnits="userSpaceOnUse">
      <stop
         stop-color="#6494AA"
         id="stop1" />
      <stop
         offset="1"
         stop-color="#ED1C24"
         id="stop2" />
    </linearGradient>
    <linearGradient
       inkscape:collect="always"
       xlink:href="#linearGradient2"
       id="linearGradient4"
       x1="1.99408"
       y1="11.99999"
       x2="66.0059"
       y2="11.99999"
       gradientUnits="userSpaceOnUse" />
  </defs>
</svg>
