<svg width="68" height="24" viewBox="0 0 68 24" fill="none" xmlns="http://www.w3.org/2000/svg">
<path fill-rule="evenodd" clip-rule="evenodd" d="M16.861 1.83978L13.1373 15.9356L5.71083 12.8973V13.027L5.6046 12.8532L5.71083 12.8973V12.7435L5.6046 12.7877L5.71083 12.6125V12.7435L13.4448 9.57993V6.22406L1.99408 11.3618V14.279L12.3475 18.9254L11.4935 22.1602H14.4778L19.8453 1.83979L16.861 1.83978ZM19.5993 5.18711L24.3643 22.1602H27.7973L30.9605 11.0627H31.0905L34.2621 22.1602H37.6937L42.4601 5.18711H38.6134L35.8556 17.0053H35.7101L32.6769 5.18711H29.3823L26.3408 16.9811H26.2024L23.446 5.18711H19.5993ZM42.4601 5.18711V22.1602H45.9812V15.1493H52.7563V12.1908H45.9812V8.14557H53.4873V5.18711H42.4601ZM54.5552 6.22406V9.57992L62.2892 12.7449V12.6124L62.394 12.7876L62.2892 12.7449V12.8959L62.394 12.8531L62.2892 13.0269V12.8959L54.5552 16.0609V19.4168L66.0059 14.279V11.3618L54.5552 6.22406Z" fill="url(#paint0_linear_43_137)"/>
<defs>
<linearGradient id="paint0_linear_43_137" x1="65.9843" y1="12.0659" x2="1.97603" y2="12.0659" gradientUnits="userSpaceOnUse">
<stop stop-color="#6494AA"/>
<stop offset="1" stop-color="#ED1C24"/>
</linearGradient>
</defs>
</svg>
