<?xml version="1.0" encoding="UTF-8" standalone="no"?>
<svg
   width="48"
   height="48"
   viewBox="0 0 48 48"
   fill="none"
   version="1.1"
   id="svg1"
   sodipodi:docname="menuHambuger.svg"
   inkscape:export-filename="menuHambuger.png"
   inkscape:export-xdpi="96"
   inkscape:export-ydpi="96"
   inkscape:version="1.3.2 (091e20e, 2023-11-25, custom)"
   xmlns:inkscape="http://www.inkscape.org/namespaces/inkscape"
   xmlns:sodipodi="http://sodipodi.sourceforge.net/DTD/sodipodi-0.dtd"
   xmlns="http://www.w3.org/2000/svg"
   xmlns:svg="http://www.w3.org/2000/svg">
  <defs
     id="defs1" />
  <sodipodi:namedview
     id="namedview1"
     pagecolor="#ffffff"
     bordercolor="#000000"
     borderopacity="0.25"
     inkscape:showpageshadow="2"
     inkscape:pageopacity="0.0"
     inkscape:pagecheckerboard="0"
     inkscape:deskcolor="#d1d1d1"
     inkscape:zoom="6.1650873"
     inkscape:cx="23.519537"
     inkscape:cy="24.573861"
     inkscape:window-width="1920"
     inkscape:window-height="1051"
     inkscape:window-x="-9"
     inkscape:window-y="-9"
     inkscape:window-maximized="1"
     inkscape:current-layer="svg1" />
  <path
     d="M14.7143 18.4643H33.2857C33.6802 18.4643 34 18.1445 34 17.75V15.9643C34 15.5698 33.6802 15.25 33.2857 15.25H14.7143C14.3198 15.25 14 15.5698 14 15.9643V17.75C14 18.1445 14.3198 18.4643 14.7143 18.4643ZM14.7143 25.6071H33.2857C33.6802 25.6071 34 25.2874 34 24.8929V23.1071C34 22.7126 33.6802 22.3929 33.2857 22.3929H14.7143C14.3198 22.3929 14 22.7126 14 23.1071V24.8929C14 25.2874 14.3198 25.6071 14.7143 25.6071ZM14.7143 32.75H33.2857C33.6802 32.75 34 32.4302 34 32.0357V30.25C34 29.8555 33.6802 29.5357 33.2857 29.5357H14.7143C14.3198 29.5357 14 29.8555 14 30.25V32.0357C14 32.4302 14.3198 32.75 14.7143 32.75Z"
     fill="#FFFBD2"
     id="path1"
     style="fill:#fffbd2;fill-opacity:1"
     inkscape:export-filename="menuHambuger.svg"
     inkscape:export-xdpi="96"
     inkscape:export-ydpi="96" />
</svg>
