<svg width="48" height="48" viewBox="0 0 48 48" fill="none" xmlns="http://www.w3.org/2000/svg">
<path fill-rule="evenodd" clip-rule="evenodd" d="M20.3838 23.9139L14.4405 29.8572C13.8532 30.4383 13.8532 31.388 14.4405 31.9753L15.8588 33.3874C16.4399 33.9747 17.3896 33.9747 17.9769 33.3874L24 27.3643L30.0294 33.3811C30.6104 33.9685 31.5601 33.9685 32.1475 33.3811L33.5595 31.9691C34.1468 31.388 34.1468 30.4383 33.5595 29.851L27.6225 23.9139L33.5595 17.9769C34.1468 17.3896 34.1468 16.4399 33.5595 15.8588L32.1475 14.4467C31.5601 13.8594 30.6104 13.8594 30.0294 14.4467L24 20.4636L17.9769 14.4405C17.3896 13.8532 16.4399 13.8532 15.8588 14.4405L14.4405 15.8525C13.8532 16.4399 13.8532 17.3896 14.4405 17.9706L20.3838 23.9139Z" fill="#FFFBD2"/>
</svg>
