<?xml version="1.0" encoding="UTF-8" standalone="no"?>
<svg
   width="48"
   height="48"
   viewBox="0 0 48 48"
   fill="none"
   version="1.1"
   id="svg1"
   sodipodi:docname="menuHambugerclose.svg"
   xmlns:inkscape="http://www.inkscape.org/namespaces/inkscape"
   xmlns:sodipodi="http://sodipodi.sourceforge.net/DTD/sodipodi-0.dtd"
   xmlns="http://www.w3.org/2000/svg"
   xmlns:svg="http://www.w3.org/2000/svg">
  <defs
     id="defs1" />
  <sodipodi:namedview
     id="namedview1"
     pagecolor="#ffffff"
     bordercolor="#000000"
     borderopacity="0.25"
     inkscape:showpageshadow="2"
     inkscape:pageopacity="0.0"
     inkscape:pagecheckerboard="0"
     inkscape:deskcolor="#d1d1d1" />
  <path
     fill-rule="evenodd"
     clip-rule="evenodd"
     d="m 20.3838,23.9139 -5.9433,5.9433 c -0.5873,0.5811 -0.5873,1.5308 0,2.1181 l 1.4183,1.4121 c 0.5811,0.5873 1.5308,0.5873 2.1181,0 L 24,27.3643 l 6.0294,6.0168 c 0.581,0.5874 1.5307,0.5874 2.1181,0 l 1.412,-1.412 c 0.5873,-0.5811 0.5873,-1.5308 0,-2.1181 l -5.937,-5.9371 5.937,-5.937 c 0.5873,-0.5873 0.5873,-1.537 0,-2.1181 l -1.412,-1.4121 c -0.5874,-0.5873 -1.5371,-0.5873 -2.1181,0 L 24,20.4636 17.9769,14.4405 c -0.5873,-0.5873 -1.537,-0.5873 -2.1181,0 l -1.4183,1.412 c -0.5873,0.5874 -0.5873,1.5371 0,2.1181 z"
     fill="#FFFBD2"
     id="path1"
     style="fill:#1c1c1c;fill-opacity:1" />
</svg>
