<?xml version="1.0" encoding="UTF-8" standalone="no"?>
<svg
   width="48"
   height="48"
   viewBox="0 0 48 48"
   fill="none"
   version="1.1"
   id="svg1"
   xmlns="http://www.w3.org/2000/svg"
   xmlns:svg="http://www.w3.org/2000/svg">
  <defs
     id="defs1" />
  <path
     d="M 14.7143,18.4643 H 33.2857 C 33.6802,18.4643 34,18.1445 34,17.75 V 15.9643 C 34,15.5698 33.6802,15.25 33.2857,15.25 H 14.7143 C 14.3198,15.25 14,15.5698 14,15.9643 V 17.75 c 0,0.3945 0.3198,0.7143 0.7143,0.7143 z m 0,7.1428 H 33.2857 C 33.6802,25.6071 34,25.2874 34,24.8929 v -1.7858 c 0,-0.3945 -0.3198,-0.7142 -0.7143,-0.7142 H 14.7143 C 14.3198,22.3929 14,22.7126 14,23.1071 v 1.7858 c 0,0.3945 0.3198,0.7142 0.7143,0.7142 z m 0,7.1429 H 33.2857 C 33.6802,32.75 34,32.4302 34,32.0357 V 30.25 c 0,-0.3945 -0.3198,-0.7143 -0.7143,-0.7143 H 14.7143 C 14.3198,29.5357 14,29.8555 14,30.25 v 1.7857 c 0,0.3945 0.3198,0.7143 0.7143,0.7143 z"
     fill="#FFFBD2"
     id="path1"
     style="fill:#1c1c1c;fill-opacity:1" />
</svg>
